<?xml version="1.0" encoding="UTF-8"?><svg id="Layer_3" xmlns="http://www.w3.org/2000/svg" viewBox="0 0 352.35 91.5"><defs><style>.cls-1{fill:#ff0101;}.cls-2{fill:#010101;}</style></defs><path class="cls-2" d="m80.06,54.52h-33.54v-10.65h45.69c-.1,1.56-.19,3.13-.32,4.7-.13,1.6-.16,3.23-.49,4.8-3.27,16.01-12.5,27.21-27.46,33.68-3.49,1.51-7.17,2.44-10.99,2.9-3.76.46-7.53.58-11.28.35-2.78-.17-5.56-.82-8.26-1.53-7.03-1.86-13.15-5.44-18.56-10.28-5.34-4.77-9.18-10.56-11.89-17.15-1.47-3.59-2.4-7.31-2.68-11.17-.2-2.73-.43-5.49-.21-8.21.23-2.82.84-5.63,1.55-8.37,1.58-6.13,4.46-11.65,8.46-16.56C16.76,8.85,25.26,3.59,35.52,1.14,40.11.04,44.78,0,49.45.21c3.98.19,7.88.95,11.66,2.22,6.31,2.12,11.93,5.44,16.79,10.01,3.87,3.65,7.06,7.8,9.52,12.71-3.26,1.45-6.51,2.89-9.73,4.32-4.5-8.07-10.88-13.88-19.62-16.86-4.71-1.61-9.62-1.91-14.58-1.74-3.61.13-7.14.8-10.43,2.11-7.27,2.91-13.08,7.69-17.19,14.44-2.34,3.83-4.14,7.92-4.71,12.35-.41,3.15-.48,6.46-.04,9.6,1.87,13.22,9.19,22.4,21.35,27.82,2.8,1.25,5.75,2.06,8.75,2.31,3.15.26,6.36.08,9.52-.19,7.76-.68,14.43-3.91,20.11-9.15,4.24-3.92,7.22-8.69,8.95-14.21.14-.43.18-.89.28-1.43Z"/><path class="cls-1" d="m293.21,63.4c-1.44-.14-2.68-.18-3.89-.39-1.84-.33-3.62-2.91-3.12-4.59.52-1.76,1.83-2.86,3.59-3.27,1.18-.28,2.42-.36,3.63-.51.78-.1,1.57-.26,2.35-.21,1.22.08,1.69-.55,2.14-1.57,6.12-13.71,12.35-27.37,19.81-40.41,1.92-3.35,4.19-6.49,6.27-9.75,2.4-3.77,7.86-3.4,10.34-.06,1.69,2.28,2.53,4.88,3.13,7.57.77,3.44,1.5,6.9,2.12,10.37.45,2.51.68,5.07,1.01,7.6.3,2.29.65,4.58.91,6.88.23,2,.34,4.01.53,6.02.22,2.31.47,4.62.69,6.93.04.47,0,.95,0,1.61.47-.05.87-.13,1.28-.12,1.73.02,3.49-.12,5.17.15,1.88.31,2.99,1.65,3.15,3.27.18,1.83-.79,3.1-2.28,3.87-.99.51-2.16.75-3.28.95-1.03.19-2.11.16-3.26.23.11,1.6.21,3.11.31,4.63.02.27.12.54.12.81.09,4.7.25,9.4.21,14.09-.02,1.99-.39,3.98-.73,5.95-.32,1.8-1.71,3-3.17,3.11-2.39.17-3.76-.67-4.39-2.91-.73-2.59-1.14-5.23-1.27-7.94-.11-2.24-.47-4.46-.71-6.69-.1-.98-.18-1.97-.24-2.95-.16-2.25-.3-4.49-.46-6.91-1.58.11-3.11.19-4.63.34-1.96.19-3.91.44-5.87.66-2.79.31-5.58.63-8.38.93-1.82.19-3.64.35-5.46.51-1.02.09-2.04.15-3.06.26-.73.08-1.18.39-1.5,1.16-1.74,4.14-3.64,8.21-5.36,12.36-1.61,3.88-3.15,7.8-4.54,11.77-.85,2.43-2.23,3.82-4.86,4.27-2,.35-3.4-.35-4.71-1.55-1.09-1-1.39-2.29-.86-3.7,1.13-3,2.24-6.01,3.43-8.99,1.47-3.71,3-7.4,4.53-11.09.37-.89.83-1.74,1.27-2.66Zm15.48-10.38c1.02-.04,1.9-.04,2.78-.13,2-.21,3.99-.48,5.99-.68,1.81-.19,3.63-.29,5.45-.48,2.88-.3,5.76-.66,8.64-.93.67-.06.96-.27.93-.92-.02-.4-.02-.8-.06-1.2-.22-2.11-.47-4.21-.68-6.32-.19-2-.29-4.01-.52-6-.34-2.93-.76-5.85-1.17-8.77-.46-3.25-.94-6.5-1.45-9.75-.16-1-.45-1.98-.68-2.97-.13-.03-.27-.05-.4-.08-3.23,6.31-6.53,12.58-9.66,18.94-3.13,6.35-6.08,12.78-9.17,19.29Z"/><path class="cls-2" d="m217.4,35.27v55.01h-6.74v-5.23c-1.05.85-1.93,1.63-2.88,2.31-3.63,2.58-7.63,3.97-12.13,3.99-2.66,0-5.29-.08-7.82-.99-6.97-2.51-11.83-7.18-14.35-14.18-.99-2.74-1.5-5.62-1.22-8.51.93-9.31,5.58-16.02,14.26-19.79,3.81-1.65,7.78-1.65,11.81-1.19,4.65.53,8.58,2.52,11.94,5.71.05.05.13.06.33.14v-17.28h6.8Zm-22.73,17.92c-8.7-.49-15.65,7.58-15.68,15.55-.04,9.25,7.96,15.59,14.95,15.94,9.84.48,16.46-7.74,16.72-15.11.32-8.99-7.04-16.96-15.98-16.38Z"/><path class="cls-2" d="m267.6,70.24h-37.7c.21,4.25,3.96,9.71,9.01,12.02,6.51,2.98,15.2,1.21,19.92-5.93,1.97.9,3.96,1.8,5.94,2.7-4.05,8.36-15.11,13.33-24.75,10.75-12.59-3.36-18.3-14.63-17.12-24.25,1.59-12.89,12.39-21.65,25.54-19.94,11.45,1.48,20.51,11.61,19.16,24.66Zm-7.18-6.82c-.91-3.29-2.74-5.86-5.27-7.98-3.58-3-7.8-3.47-12.24-3.2-5.21.31-12.24,6.63-12.4,11.19h29.9Z"/><path class="cls-2" d="m160.5,52.83v-2.74h6.66v40.2h-6.68v-5.16c-10.64,9.64-24.85,7.36-32.32-.91-8.07-8.93-7.93-21.25-.29-30.2,6.84-8.02,21.48-11.47,32.63-1.19Zm-16.09,31.79c4.46.21,8.21-1.4,11.34-4.5,3.73-3.7,5.1-8.22,4.53-13.4-.7-6.3-6.39-13.14-14.81-13.54-9.54-.46-16.53,7.48-16.63,15.56-.11,8.59,7.51,16.31,15.58,15.88Z"/><path d="m99.58,45.38h6.64v4.38c4.93-4.12,10.43-4.98,16.52-3.85-.84,1.99-1.61,3.94-2.5,5.83-.13.29-.78.43-1.21.47-1.44.16-2.95.02-4.32.39-2.9.79-5.11,2.64-6.68,5.19-1.17,1.91-1.79,3.97-1.77,6.25.05,8.35.02,16.7.02,25.05v1.21h-6.69v-44.94Z"/></svg>